<svg xmlns="http://www.w3.org/2000/svg" width="600" height="850" viewBox="0 0 600 850">
  <defs>
    <radialGradient id="bgGlow" cx="50%" cy="35%" r="65%">
      <stop offset="0%" stop-color="#2a050b" stop-opacity="0.9"/>
      <stop offset="60%" stop-color="#0a0b12" stop-opacity="1"/>
      <stop offset="100%" stop-color="#040407" stop-opacity="1"/>
    </radialGradient>
    <linearGradient id="cyberRim" x1="0%" y1="0%" x2="100%" y2="100%">
      <stop offset="0%" stop-color="#ff1f3d"/>
      <stop offset="50%" stop-color="#2a070f"/>
      <stop offset="100%" stop-color="#ff3b5c"/>
    </linearGradient>
    <pattern id="grid" width="40" height="40" patternUnits="userSpaceOnUse">
      <path d="M 40 0 L 0 0 0 40" fill="none" stroke="#ffffff" stroke-width="0.75" stroke-opacity="0.04"/>
    </pattern>
  </defs>

  <!-- Card Background -->
  <rect width="600" height="850" rx="32" fill="url(#bgGlow)"/>
  <rect width="600" height="850" rx="32" fill="url(#grid)"/>

  <!-- Cyber Edge Bevel -->
  <rect x="12" y="12" width="576" height="826" rx="24" fill="none" stroke="url(#cyberRim)" stroke-width="2" opacity="0.85"/>
  <rect x="20" y="20" width="560" height="810" rx="20" fill="none" stroke="#ffffff" stroke-width="1" stroke-opacity="0.12"/>

  <!-- Top Corner Cyber Accents -->
  <path d="M 12 50 L 12 12 L 50 12" fill="none" stroke="#ff1f3d" stroke-width="4"/>
  <path d="M 588 50 L 588 12 L 550 12" fill="none" stroke="#ff1f3d" stroke-width="4"/>
  <path d="M 12 800 L 12 838 L 50 838" fill="none" stroke="#ff1f3d" stroke-width="4"/>
  <path d="M 588 800 L 588 838 L 550 838" fill="none" stroke="#ff1f3d" stroke-width="4"/>

  <!-- Top Header Bar -->
  <g transform="translate(40, 48)">
    <!-- Wolf Squad Insignia -->
    <rect x="0" y="0" width="180" height="34" rx="8" fill="#140306" stroke="#ff1f3d" stroke-width="1.5"/>
    <text x="90" y="22" fill="#ff4d6d" font-family="monospace, sans-serif" font-size="12" font-weight="900" letter-spacing="2" text-anchor="middle">[TIER 1 PRO]</text>

    <!-- Rank Badge -->
    <rect x="360" y="0" width="160" height="34" rx="8" fill="#140306" stroke="#ff4d6d" stroke-width="1.5"/>
    <text x="440" y="22" fill="#ffffff" font-family="monospace, sans-serif" font-size="13" font-weight="900" letter-spacing="2" text-anchor="middle">RADIANT</text>
  </g>

  <!-- Card Center Graphic / Avatar -->
  
      <g transform="translate(190, 160)">
        <circle cx="110" cy="110" r="105" fill="#120205" stroke="#ff4d6d" stroke-width="2.5" opacity="0.9"/>
        <circle cx="110" cy="110" r="120" fill="none" stroke="#ff4d6d" stroke-dasharray="8 6" stroke-width="1.5" opacity="0.4"/>
        <!-- Radiant Flame / Apex Crown Vector -->
        <path d="M110 40 L135 95 L180 80 L150 135 L170 175 L110 160 L50 175 L70 135 L40 80 L85 95 Z" fill="#ff1f3d" fill-opacity="0.3" stroke="#ffffff" stroke-width="3"/>
        <circle cx="110" cy="120" r="24" fill="#120205" stroke="#ff4d6d" stroke-width="2"/>
        <polygon points="110,105 122,125 98,125" fill="#ffffff"/>
      </g>
    

  <!-- Gamer Tag & Divider -->
  <g transform="translate(300, 465)">
    <text x="0" y="0" fill="#ff4d6d" font-family="monospace, sans-serif" font-size="13" font-weight="bold" letter-spacing="3" text-anchor="middle">// NEON_VIPER //</text>
    <line x1="-220" y1="20" x2="220" y2="20" stroke="#ff1f3d" stroke-width="1.5" stroke-opacity="0.3"/>
    <polygon points="0,15 8,20 0,25 -8,20" fill="#ff1f3d"/>
  </g>

  <!-- Player Name & Role -->
  <g transform="translate(300, 535)">
    <text x="0" y="0" fill="#ffffff" font-family="'Impact', 'Arial Black', sans-serif" font-size="38" font-weight="900" letter-spacing="2" text-anchor="middle">[MEMBER NAME]</text>
    <rect x="-190" y="16" width="380" height="32" rx="6" fill="#180307" stroke="#ff1f3d" stroke-width="1.2"/>
    <text x="0" y="38" fill="#ff3b5c" font-family="monospace, sans-serif" font-size="13" font-weight="800" letter-spacing="2" text-anchor="middle">COMPETITIVE IGL</text>
  </g>

  <!-- Stats Grid -->
  <g transform="translate(60, 620)">
    <rect x="0" y="0" width="150" height="60" rx="10" fill="#0d0e17" stroke="#ffffff" stroke-opacity="0.1" stroke-width="1"/>
    <text x="75" y="24" fill="#a0a5b5" font-family="monospace, sans-serif" font-size="10" font-weight="bold" letter-spacing="1" text-anchor="middle">SPEC 01</text>
    <text x="75" y="46" fill="#ffffff" font-family="monospace, sans-serif" font-size="11" font-weight="bold" text-anchor="middle">TOURNAMENT FINALIST</text>

    <rect x="165" y="0" width="150" height="60" rx="10" fill="#0d0e17" stroke="#ffffff" stroke-opacity="0.1" stroke-width="1"/>
    <text x="240" y="24" fill="#a0a5b5" font-family="monospace, sans-serif" font-size="10" font-weight="bold" letter-spacing="1" text-anchor="middle">SPEC 02</text>
    <text x="240" y="46" fill="#ffffff" font-family="monospace, sans-serif" font-size="11" font-weight="bold" text-anchor="middle">HIGH-IQ CLUTCH</text>

    <rect x="330" y="0" width="150" height="60" rx="10" fill="#0d0e17" stroke="#ffffff" stroke-opacity="0.1" stroke-width="1"/>
    <text x="405" y="24" fill="#a0a5b5" font-family="monospace, sans-serif" font-size="10" font-weight="bold" letter-spacing="1" text-anchor="middle">SPEC 03</text>
    <text x="405" y="46" fill="#ffffff" font-family="monospace, sans-serif" font-size="11" font-weight="bold" text-anchor="middle">TIER 1 IGL</text>
  </g>

  <!-- Bottom Game / Discord Bar -->
  <g transform="translate(60, 715)">
    <rect x="0" y="0" width="480" height="50" rx="12" fill="#100306" stroke="#ff1f3d" stroke-width="1.5"/>
    <circle cx="28" cy="25" r="5" fill="#00ff66"/>
    <text x="44" y="29" fill="#00ff66" font-family="monospace, sans-serif" font-size="11" font-weight="bold" letter-spacing="1">VERIFIED SQUAD MEMBER</text>
    <text x="456" y="29" fill="#ffffff" font-family="monospace, sans-serif" font-size="11" font-weight="bold" text-anchor="end">FAV: Valorant</text>
  </g>

  <!-- Bottom Tech Footer -->
  <text x="300" y="805" fill="#707588" font-family="monospace, sans-serif" font-size="10" letter-spacing="3" text-anchor="middle">APEX UNIVERSE // CORE ROSTER EDITION</text>
</svg>